<svg width="1415" height="346" viewBox="0 0 1415 346" fill="none" xmlns="http://www.w3.org/2000/svg">
    <path fill-rule="evenodd" clip-rule="evenodd" d="M158.092 26C138.092 26.6667 93.6921 34.8 76.0921 70C70.0849 82.0143 66.0163 92.0901 62.6646 100.39C53.7415 122.488 49.9005 132 28.0921 132C4.09208 132 -0.57426 116 0.0924067 108C2.09245 92 18.2314 57.366 58.0922 32C102.092 4 130.092 0 158.092 0C186.092 0 242.093 12 276.092 48C277.314 49.2937 278.526 50.5721 279.727 51.839C309.136 82.8549 332.014 106.983 330.092 180C328.092 256 264.092 346 160.092 346C70.0925 346 22.7589 287.333 6.09221 258C4.75887 256 2.89221 250.4 6.09221 244C6.3002 243.584 6.57307 243.017 6.91309 242.31C13.1122 229.42 41.628 170.128 106.092 136C168.073 103.187 201.807 103.605 228.496 103.936C231.088 103.969 233.614 104 236.092 104C264.092 104 270.092 96 262.092 80C256.092 68 216.092 26 158.092 26ZM212.093 256C239.707 256 262.093 233.614 262.093 206C262.093 178.386 239.707 156 212.093 156C184.478 156 162.093 178.386 162.093 206C162.093 233.614 184.478 256 212.093 256Z" fill="url(#paint0_linear)"/>
    <path d="M550.128 110.85L571.284 159.804L581.862 184.65L588.504 209.496H590.226L595.884 183.912L619.992 110.85H641.64L594.654 242.706H582.354L546.192 159.312V159.558L539.796 135.696L532.416 159.804V159.558L497.73 242.706H485.922L436.968 110.85H461.814L489.12 183.912L493.794 209.742H496.008L502.896 183.42L532.662 110.85H550.128ZM765.649 229.422C759.909 233.686 752.775 237.13 744.247 239.754C735.719 242.214 726.453 243.444 716.449 243.444C705.625 243.444 696.195 241.886 688.159 238.77C680.287 235.49 673.809 230.898 668.725 224.994C663.641 219.09 659.869 211.956 657.409 203.592C654.949 195.228 653.719 185.88 653.719 175.548C653.719 153.408 659.131 136.516 669.955 124.872C680.943 113.064 696.523 107.16 716.695 107.16C723.091 107.16 729.487 107.898 735.883 109.374C742.279 110.686 748.019 113.31 753.103 117.246C758.187 121.018 762.287 126.266 765.403 132.99C768.683 139.714 770.323 148.488 770.323 159.312C770.323 161.936 770.241 164.97 770.077 168.414C769.913 171.858 769.585 175.22 769.093 178.5H676.843C677.171 193.588 680.779 204.986 687.667 212.694C694.555 220.402 706.281 224.256 722.845 224.256C729.733 224.256 736.293 223.108 742.525 220.812C748.757 218.352 753.595 215.482 757.039 212.202L765.649 229.422ZM748.675 162.264C749.003 149.144 746.297 139.878 740.557 134.466C734.981 129.054 727.109 126.348 716.941 126.348C705.461 126.348 696.359 129.054 689.635 134.466C682.911 139.878 678.975 149.144 677.827 162.264H748.675ZM807.63 67.8H830.262V126.84H832.722C836.494 120.28 841.906 115.442 848.958 112.326C856.01 109.046 863.472 107.406 871.344 107.406C889.22 107.406 902.75 112.9 911.934 123.888C921.282 134.712 925.956 151.112 925.956 173.088C925.956 195.556 919.888 212.694 907.752 224.502C895.616 236.31 878.56 242.214 856.584 242.214C845.76 242.214 835.92 241.312 827.064 239.508C818.372 237.704 811.894 235.572 807.63 233.112V67.8ZM868.146 126.594C862.898 126.594 858.224 127.414 854.124 129.054C850.188 130.694 846.662 132.99 843.546 135.942C840.43 138.73 837.724 142.01 835.428 145.782C833.296 149.39 831.574 153.162 830.262 157.098V218.352C838.298 221.468 848.056 223.026 859.536 223.026C872.492 223.026 882.742 219.09 890.286 211.218C897.994 203.182 901.848 190.39 901.848 172.842C901.848 166.282 901.192 160.214 899.88 154.638C898.568 148.898 896.518 143.978 893.73 139.878C890.942 135.778 887.416 132.58 883.152 130.284C879.052 127.824 874.05 126.594 868.146 126.594ZM960.865 118.968C975.625 111.916 993.911 108.39 1015.72 108.39C1025.56 108.39 1033.44 109.702 1039.34 112.326C1045.41 114.786 1050.08 117.984 1053.36 121.92C1056.64 125.856 1058.77 130.284 1059.76 135.204C1060.91 139.96 1061.48 144.716 1061.48 149.472C1061.48 158.492 1061.15 167.594 1060.5 176.778C1059.84 185.798 1059.51 195.638 1059.51 206.298C1059.51 212.53 1059.76 218.598 1060.25 224.502C1060.91 230.242 1061.89 235.572 1063.2 240.492H1046.72L1040.57 220.812H1038.11C1036.31 223.272 1034.09 225.814 1031.47 228.438C1028.84 230.898 1025.73 233.112 1022.12 235.08C1018.51 237.048 1014.33 238.688 1009.57 240C1004.98 241.312 999.651 241.968 993.583 241.968C987.515 241.968 981.939 241.148 976.855 239.508C971.771 237.704 967.343 235.244 963.571 232.128C959.963 229.012 957.093 225.24 954.961 220.812C952.829 216.22 951.763 211.136 951.763 205.56C951.763 198.18 953.321 191.784 956.437 186.372C959.717 180.96 963.899 176.532 968.983 173.088C974.067 169.644 979.807 167.102 986.203 165.462C992.763 163.822 999.241 163.002 1005.64 163.002C1010.72 163.002 1014.99 163.084 1018.43 163.248C1022.04 163.412 1024.99 163.658 1027.29 163.986C1029.75 164.15 1031.8 164.396 1033.44 164.724C1035.08 164.888 1036.55 165.052 1037.86 165.216C1038.19 162.756 1038.44 160.624 1038.6 158.82C1038.77 157.016 1038.85 154.72 1038.85 151.932C1038.85 147.34 1038.36 143.486 1037.37 140.37C1036.39 137.254 1034.75 134.794 1032.45 132.99C1030.32 131.022 1027.37 129.628 1023.6 128.808C1019.82 127.988 1015.23 127.578 1009.82 127.578C1006.7 127.578 1003.26 127.824 999.487 128.316C995.715 128.808 991.943 129.546 988.171 130.53C984.399 131.35 980.627 132.416 976.855 133.728C973.247 135.04 969.967 136.434 967.015 137.91L960.865 118.968ZM1037.86 181.452C1036.55 181.288 1035.16 181.042 1033.68 180.714C1032.21 180.386 1030.32 180.14 1028.02 179.976C1025.89 179.812 1023.27 179.648 1020.15 179.484C1017.2 179.32 1013.51 179.238 1009.08 179.238C998.913 179.238 990.795 181.042 984.727 184.65C978.823 188.258 975.871 194.408 975.871 203.1C975.871 209.66 978.167 214.58 982.759 217.86C987.515 221.14 993.583 222.78 1000.96 222.78C1006.38 222.78 1011.13 222.124 1015.23 220.812C1019.5 219.336 1023.1 217.614 1026.06 215.646C1029.17 213.514 1031.63 211.218 1033.44 208.758C1035.4 206.134 1036.88 203.592 1037.86 201.132V181.452ZM1197.28 240V168.66C1197.28 154.884 1195.07 144.552 1190.64 137.664C1186.21 130.776 1178.34 127.332 1167.02 127.332C1157.02 127.332 1148.65 129.956 1141.93 135.204C1135.37 140.288 1130.78 146.848 1128.15 154.884V240H1105.52V110.85H1121.27L1125.69 128.07H1127.91C1132.66 122.166 1138.81 117.246 1146.36 113.31C1154.07 109.21 1163.25 107.16 1173.91 107.16C1181.45 107.16 1188.1 108.062 1193.84 109.866C1199.58 111.506 1204.33 114.54 1208.1 118.968C1212.04 123.232 1214.99 129.054 1216.96 136.434C1218.93 143.65 1219.91 152.834 1219.91 163.986V240H1197.28ZM1247.37 110.85H1269.26V84.774L1291.9 78.87V110.85H1330.76V130.038H1291.9V195.966C1291.9 206.298 1293.21 213.596 1295.83 217.86C1298.46 222.124 1302.97 224.256 1309.36 224.256C1313.46 224.256 1317.15 223.846 1320.43 223.026C1323.88 222.042 1327.73 220.812 1331.99 219.336L1337.16 235.326C1331.91 237.622 1326.25 239.508 1320.19 240.984C1314.28 242.624 1307.89 243.444 1301 243.444C1289.52 243.444 1281.32 240.328 1276.4 234.096C1271.64 227.864 1269.26 217.696 1269.26 203.592V130.038H1247.37V110.85Z" fill="white"/>
    <defs>
        <linearGradient id="paint0_linear" x1="80.0925" y1="20" x2="262.093" y2="310" gradientUnits="userSpaceOnUse">
            <stop stop-color="#F7941D"/>
            <stop offset="0.325967" stop-color="#EC7C30"/>
            <stop offset="0.685083" stop-color="#DA316A"/>
            <stop offset="1" stop-color="#D01A7C"/>
        </linearGradient>
    </defs>
</svg>
