<svg width="225" height="154" viewBox="0 0 225 154" fill="none" xmlns="http://www.w3.org/2000/svg">
<g clip-path="url(#clip0)">
<path d="M26.8748 93.8025C27.2173 93.102 27.4649 92.3589 27.6111 91.5929C27.6572 91.3392 27.6572 91.0793 27.6111 90.8256C27.2276 88.9996 25.4022 88.9996 24.0524 88.9996H23.1473V86.6058H35.5263V88.9996H34.0691C31.9982 88.9996 30.6023 92.0686 30.2342 92.8818L20.739 115.899C18.5608 121.132 15.1554 121.592 12.425 121.592C11.3986 121.65 10.3719 121.484 9.41691 121.103C8.46193 120.722 7.60189 120.137 6.89721 119.388C6.19254 118.639 5.66033 117.745 5.33799 116.769C5.01565 115.792 4.91098 114.757 5.03136 113.735C5.14243 112.794 5.60319 111.93 6.32214 111.313C7.0411 110.696 7.96567 110.372 8.91226 110.406C9.73974 110.445 10.5202 110.802 11.0915 111.402C11.6629 112.002 11.9811 112.799 11.9802 113.628C11.9876 114.256 11.8228 114.874 11.5037 115.415C11.1846 115.956 10.7234 116.4 10.1701 116.697C9.86331 116.896 9.41846 117.05 9.41846 117.295C9.41846 118.001 10.4155 119.459 12.6398 119.459C13.9914 119.402 15.284 118.889 16.3064 118.003C17.3288 117.116 18.0208 115.91 18.2694 114.579L6.2892 91.9458C5.74125 90.9441 4.90702 90.1287 3.89324 89.6038C2.87946 89.079 1.7322 88.8686 0.598241 88.9996H0V86.6058H16.5053V88.9996H15.6616C13.9896 88.9996 11.8728 88.8922 11.8728 90.5341C11.9174 90.9012 12.021 91.2588 12.1796 91.5929L20.739 108.564H20.9845L26.8748 93.8025Z" fill="#6B6E71"/>
<path d="M68.0307 86.6058V99.741H65.5151C65.3157 91.3474 60.7291 88.57 57.7073 88.57C56.5108 88.57 56.0506 88.9689 56.0506 90.2272V116.098C56.0506 117.203 55.8512 118.477 58.5203 118.477H61.4348V120.825H45.0368V118.477H47.9513C50.6204 118.477 50.4056 117.203 50.4056 116.098V90.2732C50.4056 88.8615 49.7614 88.616 48.749 88.616C45.6811 88.616 41.0792 91.3474 40.9565 99.787H38.4408V86.6058H68.0307Z" fill="#6B6E71"/>
<path d="M82.6646 116.098C82.6646 117.203 82.4652 118.462 85.1343 118.462H88.0488V120.825H71.6355V118.462H74.5654C77.2345 118.462 77.035 117.203 77.035 116.098V91.332C77.035 90.2272 77.2345 88.9689 74.5654 88.9689H71.6355V86.6058H88.0488V88.9996H85.1343C82.4652 88.9996 82.6646 90.2579 82.6646 91.3627V101.889H83.4163C89.0459 101.889 91.2701 101.091 92.0678 95.8587C92.7274 91.6236 92.9728 85.9307 99.5688 85.9307C100.34 85.8873 101.112 85.9981 101.84 86.2565C102.568 86.515 103.237 86.9159 103.808 87.4359C104.379 87.9559 104.841 88.5845 105.167 89.2851C105.492 89.9857 105.675 90.7441 105.705 91.5162C105.705 92.5216 105.309 93.4865 104.602 94.2018C103.896 94.917 102.936 95.3249 101.931 95.337C101.449 95.3801 100.963 95.3213 100.505 95.1643C100.047 95.0072 99.6269 94.7556 99.2725 94.4256C98.9181 94.0956 98.637 93.6948 98.4475 93.249C98.2581 92.8033 98.1645 92.3227 98.1729 91.8384C98.1463 91.3865 98.2129 90.934 98.3685 90.509C98.5242 90.084 98.7657 89.6956 99.0779 89.3679C99.262 89.1224 99.5228 88.9229 99.5228 88.6774C99.5228 88.4319 99.0779 88.217 98.8632 88.217C97.7127 88.217 95.6419 88.616 95.0436 93.511C94.292 99.6489 92.8808 101.552 90.7179 102.871C102.545 105.434 96.1481 117.464 101.287 117.464C102.391 117.464 103.45 116.206 103.649 111.817H106.272C106.763 117.556 103.803 121.546 99.6762 121.546C93.7858 121.546 93.1876 114.487 92.6353 110.805C91.6689 104.667 89.8129 104.206 83.4316 104.206H82.634L82.6646 116.098Z" fill="#6B6E71"/>
<path d="M136.752 91.0405V90.3807C136.752 89.2298 135.847 88.9689 134.635 88.9689H131.306V86.6058H147.766V88.9996H144.851C142.182 88.9996 142.381 90.2579 142.381 91.3781V116.098C142.381 117.203 142.182 118.477 144.851 118.477H147.766V120.825H131.368V118.477H134.282C136.951 118.477 136.752 117.203 136.752 116.098V95.1375L120.998 116.405V117.111C120.998 117.664 120.998 118.477 122.363 118.477H126.382V120.825H109.984V118.477H112.899C115.568 118.477 115.368 117.203 115.368 116.098V91.3474C115.368 90.2272 115.568 88.9689 112.899 88.9689H109.984V86.6058H126.382V88.9996H123.468C120.799 88.9996 120.998 90.2579 120.998 91.3781V112.324L136.752 91.0405Z" fill="#6B6E71"/>
<path d="M178.307 91.3474C178.307 90.2272 178.506 88.9689 175.837 88.9689H172.922V86.6058H189.32V88.9996H186.406C183.737 88.9996 183.936 90.2579 183.936 91.3781V116.098C183.936 117.203 183.737 118.477 186.406 118.477H189.32V120.825H172.922V118.477H175.837C178.506 118.477 178.307 117.203 178.307 116.098V103.976H162.399V116.098C162.399 117.203 162.2 118.477 164.869 118.477H167.784V120.825H151.386V118.477H154.3C156.969 118.477 156.77 117.203 156.77 116.098V91.3474C156.77 90.2272 156.969 88.9689 154.3 88.9689H151.386V86.6058H167.784V88.9996H164.869C162.2 88.9996 162.399 90.2579 162.399 91.3781V101.628H178.307V91.3474Z" fill="#6B6E71"/>
<path d="M218.649 103.715C218.649 92.9739 213.879 88.2631 208.847 88.2631C203.816 88.2631 199.03 93.0506 199.03 103.715C199.03 114.38 203.755 119.167 208.847 119.167C213.94 119.167 218.649 114.564 218.649 103.715ZM225 103.715C225 111.388 219.462 121.546 208.847 121.546C198.233 121.546 192.695 111.464 192.695 103.715C192.695 95.9661 198.217 85.9307 208.847 85.9307C219.478 85.9307 225 95.9508 225 103.746" fill="#6B6E71"/>
<path d="M117.777 0V3.59067H120.998C124.68 3.59067 125.232 5.53946 125.232 6.65963C125.205 7.60856 124.958 8.53826 124.511 9.37565L112.5 36.9962L100.489 9.37565C100.016 8.55656 99.7478 7.63536 99.7068 6.69032C99.7068 5.53946 100.259 3.62136 103.941 3.62136H107.377V0H81.2994V3.59067H83.2936C87.2512 3.59067 88.6624 4.57274 90.4725 8.56238L110.445 52.786L107.622 59.1387C107.07 60.489 104.109 67.3175 99.7529 67.3175C97.3446 67.3175 97.3446 65.9364 97.3446 65.4761C97.354 64.9887 97.4916 64.5124 97.7434 64.0951L97.8354 63.9263C98.1432 63.3078 98.2909 62.6219 98.2649 61.9314C98.2288 60.5693 97.655 59.2769 96.6691 58.3367C95.6832 57.3964 94.3653 56.8848 93.0035 56.9137C92.2267 56.9217 91.4592 57.0836 90.7454 57.3902C90.0316 57.6969 89.3857 58.142 88.845 58.7C88.3044 59.258 87.8797 59.9177 87.5956 60.6409C87.3115 61.3642 87.1735 62.1366 87.1898 62.9135C87.1898 66.0899 89.7668 71.1383 96.685 71.1383C101.824 71.1383 107.193 69.7112 111.687 59.2921L112.5 57.4354L113.298 59.3075C117.792 69.7112 123.176 71.1383 128.315 71.1383C135.218 71.1383 137.795 66.0899 137.795 62.9135C137.811 62.1315 137.671 61.354 137.383 60.6267C137.095 59.8995 136.665 59.237 136.118 58.6782C135.571 58.1194 134.918 57.6755 134.197 57.3725C133.476 57.0695 132.702 56.9135 131.92 56.9137C130.558 56.8848 129.24 57.3964 128.254 58.3367C127.268 59.2769 126.695 60.5693 126.658 61.9314C126.631 62.6104 126.774 63.2854 127.073 63.8956L127.165 64.0951C127.422 64.5109 127.565 64.9873 127.579 65.4761C127.579 65.9364 127.579 67.3175 125.17 67.3175C120.799 67.3175 117.853 60.489 117.301 59.154L114.54 52.786L134.482 8.56238C136.292 4.57274 137.703 3.59067 141.645 3.59067H143.593V0H117.777Z" fill="#6B6E71"/>
<path d="M21.2299 147.31C21.2299 143.09 23.6075 140.573 27.9946 140.573C29.308 140.521 30.6169 140.756 31.8295 141.264L31.2926 142.798C30.2417 142.438 29.1363 142.261 28.0253 142.277C27.375 142.216 26.7193 142.301 26.1057 142.525C25.4922 142.749 24.9362 143.107 24.478 143.572C24.0198 144.038 23.671 144.6 23.4567 145.217C23.2425 145.834 23.1683 146.491 23.2394 147.141C23.1777 147.832 23.2689 148.528 23.5066 149.18C23.7442 149.832 24.1225 150.424 24.6144 150.913C25.1064 151.402 25.7 151.777 26.3532 152.011C27.0063 152.245 27.7029 152.332 28.3934 152.266C29.4318 152.261 30.4644 152.112 31.4613 151.821L31.9215 153.356C30.703 153.794 29.4111 153.992 28.1173 153.939C23.6996 153.939 21.2759 151.33 21.2759 147.34" fill="#6B6E71"/>
<path d="M35.511 147.31C35.4597 146.411 35.6017 145.512 35.9274 144.673C36.2531 143.834 36.7549 143.075 37.3991 142.447C38.0432 141.818 38.8146 141.335 39.6611 141.031C40.5077 140.726 41.4097 140.607 42.3064 140.681C46.6321 140.681 48.749 143.535 48.749 147.356C48.8145 148.259 48.6832 149.166 48.3644 150.014C48.0455 150.861 47.5465 151.63 46.9019 152.266C46.2574 152.902 45.4825 153.39 44.6308 153.698C43.7792 154.005 42.871 154.124 41.9689 154.046C37.7812 154.046 35.511 151.33 35.511 147.31ZM46.7548 147.31C46.7548 144.44 45.2209 142.261 42.153 142.261C39.0851 142.261 37.5511 144.44 37.5511 147.279C37.5511 150.118 39.0084 152.404 42.0763 152.404C45.1442 152.404 46.8162 150.194 46.8162 147.31" fill="#6B6E71"/>
<path d="M53.6883 149.044V140.819H55.7131V148.921C55.656 149.384 55.7051 149.854 55.8568 150.295C56.0085 150.736 56.2588 151.137 56.5886 151.467C56.9184 151.797 57.319 152.047 57.7601 152.199C58.2011 152.351 58.6709 152.4 59.1338 152.343C61.128 152.343 62.6006 151.376 62.6006 148.491V140.819H64.426V148.491C64.4992 149.219 64.4106 149.953 64.1666 150.643C63.9226 151.332 63.5292 151.958 63.0146 152.478C62.5 152.997 61.8769 153.396 61.1901 153.646C60.5032 153.895 59.7696 153.99 59.0418 153.923C56.3881 153.923 53.5963 152.849 53.5963 148.967" fill="#6B6E71"/>
<path d="M70.209 140.819H72.786L78.9525 151.683L78.8758 150.102V140.819H80.8699V153.77H78.1242L72.0957 143.09L72.1724 144.532V153.77H70.209V140.819Z" fill="#6B6E71"/>
<path d="M89.3373 142.43H85.0116V140.819H95.6112V142.43H91.2855V153.77H89.3373V142.43Z" fill="#6B6E71"/>
<path d="M106.441 151.698L104.309 148.752C103.957 148.785 103.602 148.785 103.25 148.752H101.716V153.693H99.7068V140.819H104.155C106.763 140.819 108.588 142.046 108.588 144.732C108.616 145.494 108.405 146.245 107.984 146.881C107.563 147.517 106.954 148.005 106.241 148.276L108.082 150.732C108.731 151.606 109.673 152.216 110.736 152.45L110.291 153.985C109.513 153.916 108.76 153.675 108.086 153.28C107.412 152.884 106.835 152.344 106.395 151.698H106.441ZM103.327 147.31C105.29 147.31 106.548 146.65 106.548 144.824C106.548 142.998 105.659 142.384 103.772 142.384H101.732V147.31H103.327Z" fill="#6B6E71"/>
<path d="M116.565 149.09L112.163 140.819H114.417L117.623 147.371L121.059 140.819H123.222L118.544 149.044V153.77H116.565V149.09Z" fill="#6B6E71"/>
<path d="M132.871 140.819H134.819V146.481H141.476V140.819H143.44V153.77H141.476V148.046H134.819V153.77H132.871V140.819Z" fill="#6B6E71"/>
<path d="M148.471 147.31C148.417 146.411 148.557 145.51 148.882 144.67C149.207 143.83 149.709 143.07 150.354 142.441C150.998 141.812 151.771 141.329 152.618 141.026C153.466 140.722 154.369 140.604 155.267 140.681C159.592 140.681 161.709 143.535 161.709 147.356C161.775 148.26 161.643 149.169 161.324 150.018C161.004 150.866 160.504 151.636 159.857 152.272C159.211 152.908 158.434 153.397 157.581 153.703C156.727 154.009 155.817 154.126 154.914 154.046C150.741 154.046 148.471 151.33 148.471 147.31ZM159.7 147.31C159.7 144.44 158.166 142.261 155.098 142.261C152.03 142.261 150.496 144.44 150.496 147.279C150.496 150.118 151.938 152.404 155.098 152.404C158.258 152.404 159.822 150.195 159.822 147.31" fill="#6B6E71"/>
<path d="M166.572 149.044V140.819H168.581V148.921C168.524 149.385 168.573 149.857 168.726 150.299C168.878 150.742 169.13 151.144 169.461 151.474C169.793 151.804 170.196 152.054 170.639 152.205C171.082 152.355 171.553 152.402 172.017 152.343C174.011 152.343 175.469 151.376 175.469 148.491V140.819H177.401V148.491C177.475 149.219 177.386 149.953 177.142 150.643C176.898 151.332 176.505 151.958 175.99 152.478C175.475 152.997 174.852 153.396 174.166 153.646C173.479 153.895 172.745 153.99 172.017 153.923C169.348 153.923 166.572 152.849 166.572 148.967" fill="#6B6E71"/>
<path d="M182.126 153.171L182.74 151.637C183.734 152.079 184.811 152.304 185.9 152.297C187.434 152.297 188.783 151.806 188.783 150.379C188.783 147.478 182.494 148.184 182.494 143.903C182.494 141.678 184.442 140.635 186.575 140.635C187.748 140.601 188.913 140.837 189.98 141.325L189.428 142.752C188.528 142.422 187.578 142.251 186.621 142.246C185.255 142.246 184.381 142.783 184.381 143.78C184.381 146.343 190.747 146.067 190.747 150.21C190.747 152.803 188.507 153.923 185.946 153.923C184.622 153.982 183.306 153.696 182.126 153.095" fill="#6B6E71"/>
<path d="M195.748 140.819H203.341V142.384H197.696V146.496H202.942V148.031H197.696V152.174H203.77V153.77H195.748V140.819Z" fill="#6B6E71"/>
</g>
<defs>
<clipPath id="clip0">
<rect width="225" height="154" fill="white"/>
</clipPath>
</defs>
</svg>
